<svg width="1215" height="1215" viewBox="0 0 1215 1215" fill="none" xmlns="http://www.w3.org/2000/svg">
<g clip-path="url(#clip0_1_214)">
<g clip-path="url(#clip1_1_214)">
<g clip-path="url(#clip2_1_214)">
<path d="M0.22998 0.5H1214.23V1214.5H0.22998V0.5Z" fill="#DBDBDB"/>
<path fill-rule="evenodd" clip-rule="evenodd" d="M728.63 534.66C728.63 521.25 717.76 510.38 704.35 510.38H510.11C496.7 510.38 485.83 521.25 485.83 534.66V680.34C485.83 693.75 496.7 704.62 510.11 704.62H704.35C717.76 704.62 728.63 693.75 728.63 680.34V534.66ZM576.88 546.8C586.937 546.8 595.09 554.953 595.09 565.01C595.09 575.067 586.937 583.22 576.88 583.22C566.823 583.22 558.67 575.067 558.67 565.01C558.67 554.953 566.823 546.8 576.88 546.8ZM686.14 668.2C687.75 668.2 689.294 667.56 690.432 666.422C691.57 665.284 692.21 663.74 692.21 662.13V658.002C692.202 656.69 691.776 655.415 690.996 654.36L639.401 585.527C638.821 584.794 638.083 584.202 637.242 583.795C636.402 583.388 635.479 583.176 634.545 583.176C633.611 583.176 632.688 583.388 631.847 583.795C631.007 584.202 630.269 584.794 629.689 585.527L594.726 630.687C594.154 631.435 593.42 632.042 592.578 632.462C591.737 632.883 590.811 633.106 589.87 633.115C588.987 633.117 588.115 632.921 587.317 632.543C586.519 632.165 585.815 631.614 585.257 630.93L567.654 609.685C567.076 608.992 566.352 608.436 565.533 608.059C564.714 607.681 563.821 607.49 562.919 607.5C562.094 607.586 561.294 607.834 560.565 608.23C559.836 608.626 559.192 609.162 558.67 609.807L523.585 654.36C522.719 655.376 522.246 656.668 522.25 658.002V662.13C522.25 663.74 522.89 665.284 524.028 666.422C525.166 667.56 526.71 668.2 528.32 668.2H686.14Z" fill="black" fill-opacity="0.15"/>
</g>
</g>
</g>
<defs>
<clipPath id="clip0_1_214">
<rect width="1214" height="1214" fill="white" transform="translate(0.22998 0.5)"/>
</clipPath>
<clipPath id="clip1_1_214">
<rect width="1214" height="1214" fill="white" transform="translate(0.22998 0.5)"/>
</clipPath>
<clipPath id="clip2_1_214">
<rect width="1214" height="1214" fill="white" transform="translate(0.22998 0.5)"/>
</clipPath>
</defs>
</svg>
