<svg width="581" height="117" viewBox="0 0 581 117" fill="none" xmlns="http://www.w3.org/2000/svg">
<g filter="url(#filter0_dddd_1_128)">
<rect x="17.11" y="36.5" width="547" height="80" rx="8" fill="#260647" fill-opacity="0.9" shape-rendering="crispEdges"/>
<g clip-path="url(#clip0_1_128)">
<path fill-rule="evenodd" clip-rule="evenodd" d="M530.11 67.9375C530.292 67.9375 530.467 68.0099 530.596 68.1389C530.725 68.2678 530.797 68.4427 530.797 68.625V74.8125H536.985C537.167 74.8125 537.342 74.8849 537.471 75.0139C537.6 75.1428 537.672 75.3177 537.672 75.5C537.672 75.6823 537.6 75.8572 537.471 75.9861C537.342 76.1151 537.167 76.1875 536.985 76.1875H530.797V82.375C530.797 82.5573 530.725 82.7322 530.596 82.8611C530.467 82.9901 530.292 83.0625 530.11 83.0625C529.928 83.0625 529.753 82.9901 529.624 82.8611C529.495 82.7322 529.422 82.5573 529.422 82.375V76.1875H523.235C523.053 76.1875 522.878 76.1151 522.749 75.9861C522.62 75.8572 522.547 75.6823 522.547 75.5C522.547 75.3177 522.62 75.1428 522.749 75.0139C522.878 74.8849 523.053 74.8125 523.235 74.8125H529.422V68.625C529.422 68.4427 529.495 68.2678 529.624 68.1389C529.753 68.0099 529.928 67.9375 530.11 67.9375Z" fill="white" fill-opacity="0.3"/>
</g>
</g>
<defs>
<filter id="filter0_dddd_1_128" x="0.859985" y="0.25" width="579.5" height="116.25" filterUnits="userSpaceOnUse" color-interpolation-filters="sRGB">
<feFlood flood-opacity="0" result="BackgroundImageFix"/>
<feColorMatrix in="SourceAlpha" type="matrix" values="0 0 0 0 0 0 0 0 0 0 0 0 0 0 0 0 0 0 127 0" result="hardAlpha"/>
<feMorphology radius="3.75" operator="erode" in="SourceAlpha" result="effect1_dropShadow_1_128"/>
<feOffset dy="-20"/>
<feGaussianBlur stdDeviation="10"/>
<feComposite in2="hardAlpha" operator="out"/>
<feColorMatrix type="matrix" values="0 0 0 0 0 0 0 0 0 0 0 0 0 0 0 0 0 0 0.05 0"/>
<feBlend mode="normal" in2="BackgroundImageFix" result="effect1_dropShadow_1_128"/>
<feColorMatrix in="SourceAlpha" type="matrix" values="0 0 0 0 0 0 0 0 0 0 0 0 0 0 0 0 0 0 127 0" result="hardAlpha"/>
<feMorphology radius="2.81" operator="erode" in="SourceAlpha" result="effect2_dropShadow_1_128"/>
<feOffset dy="-6.38"/>
<feGaussianBlur stdDeviation="3.19"/>
<feComposite in2="hardAlpha" operator="out"/>
<feColorMatrix type="matrix" values="0 0 0 0 0 0 0 0 0 0 0 0 0 0 0 0 0 0 0.118 0"/>
<feBlend mode="normal" in2="effect1_dropShadow_1_128" result="effect2_dropShadow_1_128"/>
<feColorMatrix in="SourceAlpha" type="matrix" values="0 0 0 0 0 0 0 0 0 0 0 0 0 0 0 0 0 0 127 0" result="hardAlpha"/>
<feMorphology radius="1.88" operator="erode" in="SourceAlpha" result="effect3_dropShadow_1_128"/>
<feOffset dy="-2.41"/>
<feGaussianBlur stdDeviation="1.205"/>
<feComposite in2="hardAlpha" operator="out"/>
<feColorMatrix type="matrix" values="0 0 0 0 0 0 0 0 0 0 0 0 0 0 0 0 0 0 0.137 0"/>
<feBlend mode="normal" in2="effect2_dropShadow_1_128" result="effect3_dropShadow_1_128"/>
<feColorMatrix in="SourceAlpha" type="matrix" values="0 0 0 0 0 0 0 0 0 0 0 0 0 0 0 0 0 0 127 0" result="hardAlpha"/>
<feMorphology radius="0.94" operator="erode" in="SourceAlpha" result="effect4_dropShadow_1_128"/>
<feOffset dy="-0.8"/>
<feGaussianBlur stdDeviation="0.4"/>
<feComposite in2="hardAlpha" operator="out"/>
<feColorMatrix type="matrix" values="0 0 0 0 0 0 0 0 0 0 0 0 0 0 0 0 0 0 0.14 0"/>
<feBlend mode="normal" in2="effect3_dropShadow_1_128" result="effect4_dropShadow_1_128"/>
<feBlend mode="normal" in="SourceGraphic" in2="effect4_dropShadow_1_128" result="shape"/>
</filter>
<clipPath id="clip0_1_128">
<rect width="26" height="22" fill="white" transform="translate(517.11 64.5)"/>
</clipPath>
</defs>
</svg>
