<svg width="55" height="55" viewBox="0 0 55 55" fill="none" xmlns="http://www.w3.org/2000/svg">
<g clip-path="url(#clip0_1_194)">
<g clip-path="url(#clip1_1_194)">
<path fill-rule="evenodd" clip-rule="evenodd" d="M17.7472 15.1257C10.8516 20.5132 9.62914 30.4696 15.0166 37.3652C20.404 44.2608 30.3604 45.4833 37.256 40.0958C44.1516 34.7084 45.3741 24.752 39.9867 17.8564C34.5992 10.9608 24.6428 9.73833 17.7472 15.1257ZM33.5125 24.0075C33.5516 23.687 33.4619 23.3639 33.2631 23.1094C33.0643 22.8549 32.7725 22.6898 32.452 22.6502L25.6091 21.81C25.4474 21.7843 25.2823 21.7915 25.1235 21.831C24.9647 21.8706 24.8154 21.9417 24.6847 22.0402C24.554 22.1387 24.4444 22.2625 24.3626 22.4042C24.2807 22.5459 24.2283 22.7027 24.2083 22.8651C24.1884 23.0276 24.2013 23.1924 24.2465 23.3497C24.2916 23.507 24.368 23.6537 24.471 23.7808C24.574 23.908 24.7016 24.0131 24.8461 24.0899C24.9906 24.1667 25.1492 24.2136 25.3122 24.2278L29.2355 24.7095L21.9493 30.4021C21.6946 30.6011 21.5294 30.8931 21.49 31.214C21.4506 31.5348 21.5403 31.8581 21.7393 32.1128C21.9383 32.3675 22.2303 32.5328 22.5511 32.5721C22.872 32.6115 23.1953 32.5219 23.45 32.3229L30.7362 26.6303L30.2544 30.5536C30.2288 30.7152 30.2359 30.8804 30.2755 31.0392C30.315 31.198 30.3862 31.3472 30.4846 31.478C30.5831 31.6087 30.7069 31.7183 30.8486 31.8001C30.9904 31.8819 31.1471 31.9344 31.3096 31.9544C31.472 31.9743 31.6368 31.9613 31.7942 31.9162C31.9515 31.8711 32.0981 31.7947 32.2253 31.6917C32.3524 31.5887 32.4576 31.4611 32.5344 31.3166C32.6112 31.172 32.6581 31.0135 32.6723 30.8505L33.5125 24.0075Z" fill="#CECECE"/>
</g>
</g>
<defs>
<clipPath id="clip0_1_194">
<rect width="39" height="39" fill="white" transform="translate(0.130005 24.25) rotate(-38)"/>
</clipPath>
<clipPath id="clip1_1_194">
<rect width="39" height="39" fill="white" transform="translate(0.130005 24.25) rotate(-38)"/>
</clipPath>
</defs>
</svg>
