<svg width="60" height="61" viewBox="0 0 60 61" fill="none" xmlns="http://www.w3.org/2000/svg">
<g clip-path="url(#clip0_1_240)">
<path opacity="0.2" d="M13.125 13.625V26.5381C13.125 35.8428 20.5676 43.5556 29.872 43.6245C32.0988 43.6414 34.3069 43.2174 36.369 42.377C38.4311 41.5365 40.3065 40.2962 41.8871 38.7276C43.4677 37.159 44.7221 35.293 45.5782 33.2373C46.4343 31.1816 46.875 28.9768 46.875 26.75V13.625C46.875 13.1277 46.6775 12.6508 46.3258 12.2992C45.9742 11.9475 45.4973 11.75 45 11.75H15C14.5027 11.75 14.0258 11.9475 13.6742 12.2992C13.3225 12.6508 13.125 13.1277 13.125 13.625Z" fill="#2A19FF"/>
<path d="M22.5 53H37.5M30 43.625V53M13.125 13.625V26.5381C13.125 35.8428 20.5676 43.5556 29.872 43.6245C32.0988 43.6414 34.3069 43.2174 36.369 42.377C38.4311 41.5365 40.3065 40.2962 41.8871 38.7276C43.4677 37.159 44.7221 35.293 45.5782 33.2373C46.4343 31.1816 46.875 28.9768 46.875 26.75V13.625C46.875 13.1277 46.6775 12.6508 46.3258 12.2992C45.9742 11.9475 45.4973 11.75 45 11.75H15C14.5027 11.75 14.0258 11.9475 13.6742 12.2992C13.3225 12.6508 13.125 13.1277 13.125 13.625Z" stroke="#2A19FF" stroke-width="3.75" stroke-linecap="round" stroke-linejoin="round"/>
<path d="M46.4569 30.5H48.75C50.7391 30.5 52.6468 29.7098 54.0533 28.3033C55.4598 26.8968 56.25 24.9891 56.25 23V19.25C56.25 18.7527 56.0524 18.2758 55.7008 17.9242C55.3492 17.5725 54.8723 17.375 54.375 17.375H46.875M13.5853 30.5H11.2202C9.23109 30.5 7.32344 29.7098 5.91691 28.3033C4.51039 26.8968 3.72021 24.9891 3.72021 23V19.25C3.72021 18.7527 3.91776 18.2758 4.26939 17.9242C4.62102 17.5725 5.09793 17.375 5.59521 17.375H13.0952" stroke="#2A19FF" stroke-width="3.75" stroke-linecap="round" stroke-linejoin="round"/>
</g>
<defs>
<clipPath id="clip0_1_240">
<rect width="60" height="60" fill="white" transform="translate(0 0.5)"/>
</clipPath>
</defs>
</svg>
