<svg width="68" height="68" viewBox="0 0 68 68" fill="none" xmlns="http://www.w3.org/2000/svg">
<g clip-path="url(#clip0_1_186)">
<g clip-path="url(#clip1_1_186)">
<path fill-rule="evenodd" clip-rule="evenodd" d="M22.8107 17.6402C13.9884 23.8176 11.8445 35.9761 18.022 44.7984C24.1994 53.6207 36.3579 55.7646 45.1802 49.5872C54.0024 43.4097 56.1463 31.2512 49.9689 22.4289C43.7915 13.6067 31.633 11.4628 22.8107 17.6402ZM41.6154 29.5722C41.6841 29.1807 41.5947 28.7779 41.3667 28.4523C41.1387 28.1266 40.7908 27.9048 40.3994 27.8356L32.043 26.3621C31.846 26.3202 31.6425 26.3183 31.4448 26.3567C31.247 26.3951 31.059 26.4729 30.892 26.5855C30.725 26.6981 30.5824 26.8432 30.4727 27.0121C30.3629 27.1811 30.2884 27.3704 30.2534 27.5687C30.2184 27.7671 30.2237 27.9705 30.2691 28.1668C30.3144 28.3631 30.3988 28.5482 30.5172 28.7111C30.6357 28.8741 30.7857 29.0115 30.9584 29.1152C31.1311 29.2189 31.3229 29.2867 31.5224 29.3147L36.3134 30.1595L26.9914 36.6868C26.6655 36.915 26.4437 37.2633 26.3746 37.655C26.3055 38.0468 26.3949 38.45 26.6231 38.7759C26.8512 39.1017 27.1995 39.3236 27.5913 39.3927C27.9831 39.4618 28.3863 39.3724 28.7121 39.1442L38.0341 32.6169L37.1893 37.4079C37.1474 37.6049 37.1455 37.8084 37.1839 38.0061C37.2223 38.2039 37.3001 38.3919 37.4127 38.5589C37.5253 38.7259 37.6704 38.8685 37.8393 38.9783C38.0083 39.088 38.1976 39.1626 38.3959 39.1976C38.5943 39.2325 38.7977 39.2272 38.994 39.1819C39.1903 39.1365 39.3754 39.0521 39.5383 38.9337C39.7013 38.8153 39.8387 38.6652 39.9424 38.4925C40.0461 38.3198 40.1139 38.128 40.1419 37.9285L41.6154 29.5722Z" fill="#CECECE"/>
</g>
</g>
<defs>
<clipPath id="clip0_1_186">
<rect width="48" height="48" fill="white" transform="translate(0.569946 27.72) rotate(-35)"/>
</clipPath>
<clipPath id="clip1_1_186">
<rect width="48" height="48" fill="white" transform="translate(0.569946 27.72) rotate(-35)"/>
</clipPath>
</defs>
</svg>
