<svg width="27" height="23" viewBox="0 0 27 23" fill="none" xmlns="http://www.w3.org/2000/svg">
<g clip-path="url(#clip0_1_147)">
<path fill-rule="evenodd" clip-rule="evenodd" d="M13.16 3.9375C13.3423 3.9375 13.5172 4.00993 13.6461 4.13886C13.775 4.2678 13.8475 4.44266 13.8475 4.625V10.8125H20.035C20.2173 10.8125 20.3922 10.8849 20.5211 11.0139C20.65 11.1428 20.7225 11.3177 20.7225 11.5C20.7225 11.6823 20.65 11.8572 20.5211 11.9861C20.3922 12.1151 20.2173 12.1875 20.035 12.1875H13.8475V18.375C13.8475 18.5573 13.775 18.7322 13.6461 18.8611C13.5172 18.9901 13.3423 19.0625 13.16 19.0625C12.9776 19.0625 12.8028 18.9901 12.6738 18.8611C12.5449 18.7322 12.4725 18.5573 12.4725 18.375V12.1875H6.28497C6.10264 12.1875 5.92777 12.1151 5.79884 11.9861C5.66991 11.8572 5.59747 11.6823 5.59747 11.5C5.59747 11.3177 5.66991 11.1428 5.79884 11.0139C5.92777 10.8849 6.10264 10.8125 6.28497 10.8125H12.4725V4.625C12.4725 4.44266 12.5449 4.2678 12.6738 4.13886C12.8028 4.00993 12.9776 3.9375 13.16 3.9375Z" fill="white" fill-opacity="0.3"/>
</g>
<defs>
<clipPath id="clip0_1_147">
<rect width="26" height="22" fill="white" transform="translate(0.159973 0.5)"/>
</clipPath>
</defs>
</svg>
