<svg width="31" height="37" viewBox="0 0 31 37" fill="none" xmlns="http://www.w3.org/2000/svg">
<g clip-path="url(#clip0_1_135)">
<path fill-rule="evenodd" clip-rule="evenodd" d="M3.7525 18.5C3.7525 11.7687 9.20875 6.3125 15.94 6.3125C22.6713 6.3125 28.1275 11.7687 28.1275 18.5C28.1275 25.2313 22.6713 30.6875 15.94 30.6875C9.20875 30.6875 3.7525 25.2313 3.7525 18.5ZM17.975 13.6038C16.8625 12.6325 15.0175 12.6325 13.9063 13.6038C13.7191 13.7675 13.4746 13.8502 13.2264 13.8337C12.9783 13.8172 12.7469 13.7028 12.5831 13.5156C12.4194 13.3285 12.3366 13.0839 12.3532 12.8358C12.3697 12.5877 12.4841 12.3563 12.6713 12.1925C14.4888 10.6025 17.3913 10.6025 19.2088 12.1925C21.1 13.8475 21.1 16.59 19.2088 18.245C18.8925 18.5208 18.5406 18.7529 18.1625 18.935C17.3175 19.345 16.8775 19.9025 16.8775 20.375V21.3125C16.8775 21.5611 16.7787 21.7996 16.6029 21.9754C16.4271 22.1512 16.1886 22.25 15.94 22.25C15.6914 22.25 15.4529 22.1512 15.2771 21.9754C15.1013 21.7996 15.0025 21.5611 15.0025 21.3125V20.375C15.0025 18.7762 16.3275 17.7413 17.3463 17.2475C17.5732 17.138 17.7846 16.9989 17.975 16.8337C19.0125 15.925 19.0125 14.5125 17.975 13.6038ZM15.94 26C16.1886 26 16.4271 25.9012 16.6029 25.7254C16.7787 25.5496 16.8775 25.3111 16.8775 25.0625C16.8775 24.8139 16.7787 24.5754 16.6029 24.3996C16.4271 24.2238 16.1886 24.125 15.94 24.125C15.6914 24.125 15.4529 24.2238 15.2771 24.3996C15.1013 24.5754 15.0025 24.8139 15.0025 25.0625C15.0025 25.3111 15.1013 25.5496 15.2771 25.7254C15.4529 25.9012 15.6914 26 15.94 26Z" fill="white"/>
</g>
<defs>
<clipPath id="clip0_1_135">
<rect width="30" height="36" fill="white" transform="translate(0.940002 0.5)"/>
</clipPath>
</defs>
</svg>
