<svg width="28" height="28" viewBox="0 0 28 28" fill="none" xmlns="http://www.w3.org/2000/svg">
<g clip-path="url(#clip0_1_35)">
<path fill-rule="evenodd" clip-rule="evenodd" d="M5.29247 11.4687C5.29168 9.89917 5.83789 8.3784 6.83714 7.16801C7.83638 5.95763 9.2262 5.13331 10.7675 4.83685C12.3088 4.54038 13.9053 4.79032 15.2822 5.54365C16.6592 6.29698 17.7306 7.50662 18.3121 8.96449C18.9575 8.89039 19.6113 8.96634 20.2225 9.18642C20.8337 9.40651 21.3859 9.76478 21.8359 10.2333C22.2859 10.7018 22.6216 11.268 22.8169 11.8876C23.0122 12.5071 23.0618 13.1635 22.9617 13.8054C23.9378 14.3539 24.7045 15.2104 25.1418 16.2411C25.5792 17.2717 25.6626 18.4183 25.3789 19.5014C25.0953 20.5844 24.4606 21.5429 23.5741 22.2269C22.6877 22.9108 21.5996 23.2816 20.48 23.2812H7.82372C6.48009 23.2819 5.1764 22.8243 4.12784 21.9842C3.07929 21.144 2.34853 19.9715 2.0562 18.66C1.76386 17.3486 1.92742 15.9767 2.51988 14.7707C3.11234 13.5647 4.09828 12.5968 5.31497 12.0267C5.29986 11.8411 5.29236 11.655 5.29247 11.4687Z" fill="#FCFCFF"/>
</g>
<defs>
<clipPath id="clip0_1_35">
<rect width="27" height="27" fill="white" transform="translate(0.22998 0.5)"/>
</clipPath>
</defs>
</svg>
