<svg width="55" height="56" viewBox="0 0 55 56" fill="none" xmlns="http://www.w3.org/2000/svg">
<g clip-path="url(#clip0_1_197)">
<g clip-path="url(#clip1_1_197)">
<path fill-rule="evenodd" clip-rule="evenodd" d="M17.7472 15.5156C10.8516 20.9031 9.62914 30.8595 15.0166 37.7551C20.404 44.6507 30.3604 45.8732 37.256 40.4857C44.1516 35.0983 45.3741 25.1419 39.9867 18.2463C34.5992 11.3507 24.6428 10.1282 17.7472 15.5156ZM33.5125 24.3974C33.5516 24.0769 33.4619 23.7538 33.2631 23.4993C33.0643 23.2448 32.7725 23.0797 32.452 23.0401L25.6091 22.1999C25.4474 22.1742 25.2823 22.1814 25.1235 22.2209C24.9647 22.2605 24.8154 22.3316 24.6847 22.4301C24.554 22.5286 24.4444 22.6524 24.3626 22.7941C24.2807 22.9358 24.2283 23.0926 24.2083 23.255C24.1884 23.4175 24.2013 23.5823 24.2465 23.7396C24.2916 23.8969 24.368 24.0435 24.471 24.1707C24.574 24.2979 24.7016 24.403 24.8461 24.4798C24.9906 24.5566 25.1492 24.6035 25.3122 24.6177L29.2355 25.0994L21.9493 30.792C21.6946 30.991 21.5294 31.283 21.49 31.6038C21.4506 31.9247 21.5403 32.248 21.7393 32.5027C21.9383 32.7574 22.2303 32.9226 22.5511 32.962C22.872 33.0014 23.1953 32.9118 23.45 32.7128L30.7362 27.0202L30.2544 30.9435C30.2288 31.1051 30.2359 31.2703 30.2755 31.4291C30.315 31.5879 30.3862 31.7371 30.4846 31.8679C30.5831 31.9986 30.7069 32.1081 30.8486 32.19C30.9904 32.2718 31.1471 32.3243 31.3096 32.3442C31.472 32.3642 31.6368 32.3512 31.7942 32.3061C31.9515 32.261 32.0981 32.1846 32.2253 32.0816C32.3524 31.9786 32.4576 31.851 32.5344 31.7064C32.6112 31.5619 32.6581 31.4034 32.6723 31.2403L33.5125 24.3974Z" fill="#CECECE"/>
</g>
</g>
<defs>
<clipPath id="clip0_1_197">
<rect width="39" height="39" fill="white" transform="translate(0.130005 24.6399) rotate(-38)"/>
</clipPath>
<clipPath id="clip1_1_197">
<rect width="39" height="39" fill="white" transform="translate(0.130005 24.6399) rotate(-38)"/>
</clipPath>
</defs>
</svg>
