<svg width="34" height="25" viewBox="0 0 34 25" fill="none" xmlns="http://www.w3.org/2000/svg">
<path d="M25.8701 10.1336L18.0576 2.7625C18.0538 2.75917 18.0502 2.75558 18.0469 2.75176C17.7592 2.49017 17.3844 2.34521 16.9956 2.34521C16.6068 2.34521 16.232 2.49017 15.9443 2.75176L15.9336 2.7625L8.12988 10.1336C7.9707 10.28 7.84364 10.4578 7.75673 10.6558C7.66982 10.8538 7.62497 11.0677 7.625 11.284V20.3123C7.625 20.7267 7.78962 21.1241 8.08265 21.4172C8.37567 21.7102 8.7731 21.8748 9.1875 21.8748H13.875C14.2894 21.8748 14.6868 21.7102 14.9799 21.4172C15.2729 21.1241 15.4375 20.7267 15.4375 20.3123V15.6248H18.5625V20.3123C18.5625 20.7267 18.7271 21.1241 19.0201 21.4172C19.3132 21.7102 19.7106 21.8748 20.125 21.8748H24.8125C25.2269 21.8748 25.6243 21.7102 25.9174 21.4172C26.2104 21.1241 26.375 20.7267 26.375 20.3123V11.284C26.375 11.0677 26.3302 10.8538 26.2433 10.6558C26.1564 10.4578 26.0293 10.28 25.8701 10.1336ZM24.8125 20.3123H20.125V15.6248C20.125 15.2104 19.9604 14.813 19.6674 14.52C19.3743 14.2269 18.9769 14.0623 18.5625 14.0623H15.4375C15.0231 14.0623 14.6257 14.2269 14.3326 14.52C14.0396 14.813 13.875 15.2104 13.875 15.6248V20.3123H9.1875V11.284L9.19824 11.2742L17 3.90605L24.8027 11.2723L24.8135 11.282L24.8125 20.3123Z" fill="#6666FF"/>
</svg>
