<svg width="28" height="28" viewBox="0 0 28 28" fill="none" xmlns="http://www.w3.org/2000/svg">
<g clip-path="url(#clip0_1_41)">
<path fill-rule="evenodd" clip-rule="evenodd" d="M6.55811 2.1875H10.355C11.4739 2.1875 12.5469 2.63197 13.3381 3.42314C14.1293 4.21431 14.5737 5.28737 14.5737 6.40625V8.51562C14.5737 9.68113 15.5187 10.625 16.6831 10.625H18.7925C19.9114 10.625 20.9844 11.0695 21.7756 11.8606C22.5668 12.6518 23.0112 13.7249 23.0112 14.8438V23.7031C23.0112 24.8675 22.0662 25.8125 20.9019 25.8125H6.55811C5.99866 25.8125 5.46214 25.5903 5.06655 25.1947C4.67097 24.7991 4.44873 24.2626 4.44873 23.7031V4.29688C4.44873 3.13137 5.39373 2.1875 6.55811 2.1875ZM13.1337 21.3463C13.2919 21.5043 13.5064 21.593 13.73 21.593C13.9536 21.593 14.168 21.5043 14.3262 21.3463L17.7012 17.9712C17.7841 17.894 17.8506 17.8009 17.8967 17.6974C17.9429 17.5939 17.9676 17.4821 17.9696 17.3688C17.9716 17.2555 17.9508 17.143 17.9084 17.038C17.8659 16.9329 17.8028 16.8375 17.7226 16.7573C17.6425 16.6772 17.5471 16.614 17.442 16.5716C17.337 16.5292 17.2244 16.5083 17.1111 16.5103C16.9979 16.5123 16.8861 16.5371 16.7826 16.5832C16.6791 16.6294 16.586 16.6959 16.5087 16.7788L14.5737 18.7138V14C14.5737 13.7762 14.4848 13.5616 14.3266 13.4034C14.1684 13.2451 13.9538 13.1562 13.73 13.1562C13.5062 13.1562 13.2916 13.2451 13.1334 13.4034C12.9751 13.5616 12.8862 13.7762 12.8862 14V18.7138L10.9512 16.7788C10.7913 16.6297 10.5797 16.5486 10.3611 16.5524C10.1426 16.5563 9.934 16.6448 9.77941 16.7994C9.62482 16.954 9.53626 17.1626 9.53241 17.3812C9.52855 17.5998 9.60969 17.8113 9.75873 17.9712L13.1337 21.3463Z" fill="#FCFCFF"/>
<path d="M16.2612 6.40622C16.2632 4.98708 15.7522 3.61505 14.8223 2.54297C16.7048 3.03793 18.422 4.024 19.7983 5.40034C21.1747 6.77668 22.1607 8.49389 22.6557 10.3763C21.5836 9.44651 20.2116 8.9355 18.7925 8.93747H16.6831C16.5712 8.93747 16.4639 8.89302 16.3848 8.8139C16.3056 8.73479 16.2612 8.62748 16.2612 8.51559V6.40622Z" fill="#FCFCFF"/>
</g>
<defs>
<clipPath id="clip0_1_41">
<rect width="27" height="27" fill="white" transform="translate(0.22998 0.5)"/>
</clipPath>
</defs>
</svg>
