<svg width="68" height="69" viewBox="0 0 68 69" fill="none" xmlns="http://www.w3.org/2000/svg">
<g clip-path="url(#clip0_1_182)">
<g clip-path="url(#clip1_1_182)">
<path fill-rule="evenodd" clip-rule="evenodd" d="M18.632 22.498C12.0013 30.9849 13.5059 43.239 21.9928 49.8696C30.4797 56.5003 42.7337 54.9957 49.3644 46.5088C55.9951 38.0219 54.4905 25.7679 46.0036 19.1372C37.5167 12.5065 25.2626 14.0112 18.632 22.498ZM40.1035 28.4107C40.0549 28.0161 39.8516 27.6571 39.5383 27.4124C39.2251 27.1676 38.8275 27.0573 38.433 27.1055L30.0109 28.1396C29.8103 28.157 29.6152 28.2148 29.4373 28.3093C29.2594 28.4038 29.1024 28.5332 28.9756 28.6897C28.8488 28.8462 28.7548 29.0267 28.6992 29.2203C28.6437 29.4139 28.6277 29.6168 28.6523 29.8167C28.6768 30.0166 28.7414 30.2096 28.8421 30.384C28.9429 30.5585 29.0777 30.7108 29.2386 30.832C29.3995 30.9532 29.5832 31.0408 29.7786 31.0894C29.9741 31.1381 30.1774 31.1469 30.3763 31.1153L35.2049 30.5225L28.1987 39.49C27.9538 39.8035 27.8434 40.2015 27.8919 40.5963C27.9404 40.9912 28.1438 41.3506 28.4572 41.5955C28.7707 41.8405 29.1687 41.9508 29.5635 41.9023C29.9584 41.8539 30.3178 41.6505 30.5628 41.337L37.569 32.3694L38.1619 37.1981C38.1793 37.3988 38.2371 37.5939 38.3316 37.7717C38.4261 37.9496 38.5555 38.1066 38.712 38.2334C38.8685 38.3602 39.049 38.4542 39.2426 38.5098C39.4362 38.5653 39.6391 38.5813 39.839 38.5567C40.0389 38.5322 40.2319 38.4676 40.4063 38.3669C40.5808 38.2661 40.7331 38.1313 40.8543 37.9704C40.9755 37.8095 41.0631 37.6258 41.1117 37.4304C41.1604 37.2349 41.1692 37.0316 41.1376 36.8327L40.1035 28.4107Z" fill="#CECECE"/>
</g>
</g>
<defs>
<clipPath id="clip0_1_182">
<rect width="48" height="48" fill="white" transform="translate(0.310059 38.6399) rotate(-52)"/>
</clipPath>
<clipPath id="clip1_1_182">
<rect width="48" height="48" fill="white" transform="translate(0.310059 38.6399) rotate(-52)"/>
</clipPath>
</defs>
</svg>
