<svg width="19" height="19" viewBox="0 0 19 19" fill="none" xmlns="http://www.w3.org/2000/svg">
<g clip-path="url(#clip0_1_139)">
<path d="M13.333 9.89798L7.70797 15.523C7.6557 15.5752 7.59366 15.6167 7.52538 15.645C7.45709 15.6733 7.38391 15.6878 7.31 15.6878C7.23609 15.6878 7.1629 15.6733 7.09462 15.645C7.02633 15.6167 6.96429 15.5752 6.91203 15.523C6.85977 15.4707 6.81831 15.4087 6.79003 15.3404C6.76174 15.2721 6.74718 15.1989 6.74718 15.125C6.74718 15.0511 6.76174 14.9779 6.79003 14.9096C6.81831 14.8413 6.85977 14.7793 6.91203 14.727L12.1398 9.50001L6.91203 4.27298C6.80648 4.16743 6.74718 4.02427 6.74718 3.87501C6.74718 3.72574 6.80648 3.58259 6.91203 3.47704C7.01758 3.37149 7.16073 3.31219 7.31 3.31219C7.45926 3.31219 7.60242 3.37149 7.70797 3.47704L13.333 9.10204C13.3853 9.15428 13.4268 9.21632 13.4551 9.2846C13.4834 9.35289 13.4979 9.42609 13.4979 9.50001C13.4979 9.57393 13.4834 9.64713 13.4551 9.71541C13.4268 9.7837 13.3853 9.84574 13.333 9.89798Z" fill="white"/>
</g>
<defs>
<clipPath id="clip0_1_139">
<rect width="18" height="18" fill="white" transform="translate(0.559998 0.5)"/>
</clipPath>
</defs>
</svg>
