<svg width="68" height="69" viewBox="0 0 68 69" fill="none" xmlns="http://www.w3.org/2000/svg">
<g clip-path="url(#clip0_1_178)">
<g clip-path="url(#clip1_1_178)">
<path fill-rule="evenodd" clip-rule="evenodd" d="M19.5133 21.4557C12.3067 29.4594 12.9529 41.7885 20.9565 48.9951C28.9602 56.2016 41.2894 55.5555 48.4959 47.5518C55.7024 39.5481 55.0563 27.219 47.0526 20.0124C39.049 12.8059 26.7198 13.452 19.5133 21.4557ZM40.5201 28.8517C40.499 28.4548 40.3213 28.0824 40.0259 27.8164C39.7305 27.5504 39.3416 27.4126 38.9446 27.4332L30.471 27.8772C30.2695 27.8807 30.0709 27.9246 29.8868 28.0065C29.7028 28.0884 29.5371 28.2065 29.3997 28.3538C29.2623 28.5011 29.156 28.6746 29.0871 28.8639C29.0182 29.0531 28.9881 29.2544 28.9986 29.4555C29.0092 29.6567 29.0601 29.8537 29.1484 30.0347C29.2368 30.2157 29.3606 30.3771 29.5127 30.5093C29.6647 30.6414 29.8418 30.7415 30.0334 30.8037C30.225 30.8659 30.4272 30.8889 30.6279 30.8713L35.4861 30.6167L27.8714 39.0736C27.6052 39.3693 27.4673 39.7586 27.4882 40.1558C27.509 40.5531 27.6868 40.9259 27.9824 41.1921C28.278 41.4582 28.6673 41.5961 29.0646 41.5753C29.4619 41.5545 29.8346 41.3767 30.1008 41.081L37.7155 32.624L37.9701 37.4823C37.9736 37.6837 38.0175 37.8823 38.0994 38.0664C38.1813 38.2504 38.2994 38.4161 38.4467 38.5535C38.594 38.6909 38.7675 38.7972 38.9568 38.8662C39.146 38.9351 39.3473 38.9651 39.5484 38.9546C39.7496 38.9441 39.9466 38.8931 40.1276 38.8048C40.3086 38.7165 40.47 38.5926 40.6022 38.4405C40.7343 38.2885 40.8344 38.1114 40.8966 37.9198C40.9588 37.7282 40.9818 37.526 40.9642 37.3254L40.5201 28.8517Z" fill="#CECECE"/>
</g>
</g>
<defs>
<clipPath id="clip0_1_178">
<rect width="48" height="48" fill="white" transform="translate(0.109985 36.28) rotate(-48)"/>
</clipPath>
<clipPath id="clip1_1_178">
<rect width="48" height="48" fill="white" transform="translate(0.109985 36.28) rotate(-48)"/>
</clipPath>
</defs>
</svg>
