<svg width="65" height="64" viewBox="0 0 65 64" fill="none" xmlns="http://www.w3.org/2000/svg">
<g clip-path="url(#clip0_1_174)">
<g clip-path="url(#clip1_1_174)">
<path fill-rule="evenodd" clip-rule="evenodd" d="M19.1303 19.5318C12.2443 26.9162 12.6482 38.4836 20.0326 45.3696C27.417 52.2557 38.9844 51.8517 45.8704 44.4673C52.7565 37.083 52.3525 25.5156 44.9682 18.6295C37.5838 11.7435 26.0164 12.1474 19.1303 19.5318ZM38.7002 26.8082C38.687 26.4358 38.5264 26.0838 38.2539 25.8297C37.9813 25.5755 37.6191 25.4399 37.2466 25.4527L29.2965 25.7303C29.1077 25.7303 28.9207 25.7682 28.7469 25.842C28.573 25.9157 28.4158 26.0237 28.2846 26.1595C28.1534 26.2954 28.0509 26.4562 27.9832 26.6325C27.9155 26.8088 27.884 26.9969 27.8906 27.1857C27.8972 27.3744 27.9417 27.5599 28.0216 27.731C28.1014 27.9022 28.2149 28.0555 28.3552 28.1818C28.4956 28.3082 28.66 28.4049 28.8385 28.4664C29.0171 28.5278 29.2062 28.5526 29.3946 28.5394L33.9527 28.3802L26.6766 36.1828C26.4223 36.4556 26.2867 36.8182 26.2997 37.191C26.3127 37.5637 26.4733 37.916 26.746 38.1704C27.0188 38.4247 27.3814 38.5603 27.7542 38.5473C28.1269 38.5343 28.4792 38.3737 28.7335 38.101L36.0096 30.2983L36.1688 34.8564C36.1687 35.0452 36.2067 35.2322 36.2804 35.406C36.3542 35.5799 36.4622 35.7371 36.598 35.8683C36.7338 35.9995 36.8947 36.102 37.071 36.1697C37.2473 36.2374 37.4354 36.2689 37.6241 36.2623C37.8128 36.2557 37.9983 36.2112 38.1695 36.1314C38.3406 36.0515 38.4939 35.938 38.6203 35.7977C38.7466 35.6573 38.8434 35.4929 38.9048 35.3144C38.9662 35.1358 38.9911 34.9467 38.9778 34.7583L38.7002 26.8082Z" fill="#CECECE"/>
</g>
</g>
<defs>
<clipPath id="clip0_1_174">
<rect width="45" height="45" fill="white" transform="translate(0.699951 33.1101) rotate(-47)"/>
</clipPath>
<clipPath id="clip1_1_174">
<rect width="45" height="45" fill="white" transform="translate(0.699951 33.1101) rotate(-47)"/>
</clipPath>
</defs>
</svg>
