<svg width="31" height="37" viewBox="0 0 31 37" fill="none" xmlns="http://www.w3.org/2000/svg">
<g clip-path="url(#clip0_1_143)">
<path fill-rule="evenodd" clip-rule="evenodd" d="M2.97247 18.5C2.97247 11.7687 8.42872 6.3125 15.16 6.3125C21.8912 6.3125 27.3475 11.7687 27.3475 18.5C27.3475 25.2313 21.8912 30.6875 15.16 30.6875C8.42872 30.6875 2.97247 25.2313 2.97247 18.5ZM17.195 13.6038C16.0825 12.6325 14.2375 12.6325 13.1262 13.6038C12.9391 13.7675 12.6945 13.8502 12.4464 13.8337C12.1983 13.8172 11.9669 13.7028 11.8031 13.5156C11.6393 13.3285 11.5566 13.0839 11.5731 12.8358C11.5897 12.5877 11.7041 12.3563 11.8912 12.1925C13.7087 10.6025 16.6112 10.6025 18.4287 12.1925C20.32 13.8475 20.32 16.59 18.4287 18.245C18.1124 18.5208 17.7605 18.7529 17.3825 18.935C16.5375 19.345 16.0975 19.9025 16.0975 20.375V21.3125C16.0975 21.5611 15.9987 21.7996 15.8229 21.9754C15.6471 22.1512 15.4086 22.25 15.16 22.25C14.9113 22.25 14.6729 22.1512 14.4971 21.9754C14.3212 21.7996 14.2225 21.5611 14.2225 21.3125V20.375C14.2225 18.7762 15.5475 17.7413 16.5662 17.2475C16.7932 17.138 17.0046 16.9989 17.195 16.8337C18.2325 15.925 18.2325 14.5125 17.195 13.6038ZM15.16 26C15.4086 26 15.6471 25.9012 15.8229 25.7254C15.9987 25.5496 16.0975 25.3111 16.0975 25.0625C16.0975 24.8139 15.9987 24.5754 15.8229 24.3996C15.6471 24.2238 15.4086 24.125 15.16 24.125C14.9113 24.125 14.6729 24.2238 14.4971 24.3996C14.3212 24.5754 14.2225 24.8139 14.2225 25.0625C14.2225 25.3111 14.3212 25.5496 14.4971 25.7254C14.6729 25.9012 14.9113 26 15.16 26Z" fill="white"/>
</g>
<defs>
<clipPath id="clip0_1_143">
<rect width="30" height="36" fill="white" transform="translate(0.159973 0.5)"/>
</clipPath>
</defs>
</svg>
