<svg width="28" height="28" viewBox="0 0 28 28" fill="none" xmlns="http://www.w3.org/2000/svg">
<g clip-path="url(#clip0_1_38)">
<path d="M20.9019 3.03125C19.7375 3.03125 18.7925 3.97625 18.7925 5.14062V22.8594C18.7925 24.0237 19.7375 24.9688 20.9019 24.9688H21.7456C22.91 24.9688 23.855 24.0237 23.855 22.8594V5.14062C23.855 3.97512 22.91 3.03125 21.7456 3.03125H20.9019ZM11.1987 10.2031C11.1987 9.03762 12.1437 8.09375 13.3081 8.09375H14.1519C15.3174 8.09375 16.2612 9.03875 16.2612 10.2031V22.8594C16.2612 24.0237 15.3162 24.9688 14.1519 24.9688H13.3081C12.7487 24.9688 12.2121 24.7465 11.8166 24.3509C11.421 23.9553 11.1987 23.4188 11.1987 22.8594V10.2031ZM3.60498 15.2656C3.60498 14.1001 4.54998 13.1562 5.71436 13.1562H6.55811C7.72361 13.1562 8.66748 14.1013 8.66748 15.2656V22.8594C8.66748 24.0237 7.72248 24.9688 6.55811 24.9688H5.71436C5.15491 24.9688 4.61839 24.7465 4.2228 24.3509C3.82722 23.9553 3.60498 23.4188 3.60498 22.8594V15.2656Z" fill="#FCFCFF"/>
</g>
<defs>
<clipPath id="clip0_1_38">
<rect width="27" height="27" fill="white" transform="translate(0.22998 0.5)"/>
</clipPath>
</defs>
</svg>
